<svg width="512" height="512" viewBox="0 0 512 512" fill="none" xmlns="http://www.w3.org/2000/svg" color="white">
<path d="M261.887 501.178C259.691 502.395 257.877 503.374 256.494 504.109C255.111 503.374 253.297 502.395 251.101 501.178C245.604 498.13 237.724 493.593 228.256 487.667C209.305 475.804 184.066 458.423 158.86 436.335C108.157 391.903 59 329.679 59 256V81.6485L256.494 7.47738L453.988 81.6485V256C453.988 329.679 404.832 391.903 354.128 436.335C328.922 458.423 303.683 475.804 284.732 487.667C275.264 493.593 267.384 498.13 261.887 501.178Z" fill="#EEB377" stroke="#EBA35C" stroke-width="14" stroke-linecap="round" stroke-linejoin="round"/>
<mask id="mask0_0_1" style="mask-type:alpha" maskUnits="userSpaceOnUse" x="52" y="0" width="204" height="512">
<rect x="52" width="204" height="512" fill="currentColor"/>
</mask>
<g mask="url(#mask0_0_1)">
<path d="M261.887 501.178C259.691 502.395 257.877 503.374 256.494 504.109C255.111 503.374 253.297 502.395 251.101 501.178C245.604 498.13 237.724 493.593 228.256 487.667C209.305 475.804 184.066 458.423 158.86 436.335C108.157 391.903 59 329.679 59 256V81.6485L256.494 7.47738L453.988 81.6485V256C453.988 329.679 404.832 391.903 354.128 436.335C328.922 458.423 303.683 475.804 284.732 487.667C275.264 493.593 267.384 498.13 261.887 501.178Z" fill="#EBA660" stroke="#E8994A" stroke-width="14" stroke-linecap="round" stroke-linejoin="round"/>
</g>
<mask id="mask1_0_1" style="mask-type:alpha" maskUnits="userSpaceOnUse" x="52" y="0" width="409" height="512">
<path d="M262.372 502.052C259.913 503.415 257.93 504.481 256.494 505.24C255.058 504.481 253.075 503.415 250.616 502.052C245.106 498.997 237.21 494.451 227.725 488.514C208.743 476.632 183.458 459.22 158.201 437.087C107.438 392.603 58 330.125 58 256V80.9558L256.494 6.40918L454.988 80.9558V256C454.988 330.125 405.551 392.603 354.787 437.087C329.53 459.22 304.245 476.632 285.263 488.514C275.778 494.451 267.882 498.997 262.372 502.052Z" fill="currentColor" stroke="currentColor" stroke-width="14" stroke-linecap="round" stroke-linejoin="round"/>
</mask>
<g mask="url(#mask1_0_1)">
<path d="M230.189 372.95V495.433C230.189 500.091 225.114 502.972 221.114 500.586L141.341 452.99C139.526 451.907 138.415 449.95 138.415 447.837V309.767C138.415 307.694 139.485 305.767 141.246 304.672L255.699 233.475C257.639 232.268 260.097 232.268 262.037 233.475L376.49 304.672C378.25 305.767 379.321 307.694 379.321 309.767V447.837C379.321 449.95 378.209 451.907 376.395 452.99L296.621 500.586C292.622 502.972 287.547 500.091 287.547 495.433V372.95C287.547 370.997 286.597 369.166 284.999 368.042L262.32 352.09C260.249 350.633 257.487 350.633 255.416 352.09L232.737 368.042C231.139 369.166 230.189 370.997 230.189 372.95Z" fill="currentColor"/>
<path d="M408 168.336V287.491C408 292.228 402.768 295.097 398.774 292.55L262.034 205.35C260.097 204.115 257.625 204.094 255.668 205.296L113.14 292.82C109.142 295.275 104 292.399 104 287.708V168.658C104 166.529 105.129 164.559 106.966 163.482L129.381 150.343C133.381 147.998 138.415 150.883 138.415 155.519V185.365C138.415 190.226 143.892 193.069 147.867 190.273L164.546 178.54C166.144 177.417 167.094 175.586 167.094 173.633V134.317C167.094 132.253 168.155 130.334 169.903 129.236L195.186 113.356C199.182 110.846 204.377 113.718 204.377 118.437V148.215C204.377 153.014 209.73 155.871 213.717 153.2L227.528 143.948C229.191 142.834 230.189 140.964 230.189 138.963V96.6253C230.189 94.4882 231.325 92.5123 233.173 91.4382L255.852 78.2532C257.717 77.1693 260.019 77.1693 261.884 78.2532L284.563 91.4382C286.41 92.5123 287.547 94.4882 287.547 96.6253V138.643C287.547 140.818 288.724 142.822 290.622 143.882L304.434 151.593C308.433 153.825 313.358 150.934 313.358 146.354V118.437C313.358 113.718 318.554 110.846 322.55 113.356L347.833 129.236C349.581 130.334 350.642 132.253 350.642 134.317V173.633C350.642 175.586 351.592 177.417 353.19 178.54L369.869 190.273C373.844 193.069 379.321 190.226 379.321 185.365V156.603C379.321 151.743 384.797 148.9 388.773 151.696L405.452 163.428C407.049 164.552 408 166.383 408 168.336Z" fill="currentColor"/>
</g>
</svg>
